<svg xmlns="http://www.w3.org/2000/svg" viewBox="0 0 152.62 127.53"><defs><style>.cls-1{fill:#231f20;stroke-width:11px;}.cls-1,.cls-2{stroke:#8c8cc4;stroke-linecap:round;stroke-miterlimit:10;}.cls-2{fill:#524ea0;stroke-width:16.43px;}.cls-3{fill:#c9bede;}.cls-4{fill:#c8bede;}</style></defs><g id="Layer_2" data-name="Layer 2"><line class="cls-1" x1="55.79" y1="38.09" x2="55.79" y2="58.5"/><line class="cls-2" x1="144.4" y1="8.21" x2="86.52" y2="24.22"/><path class="cls-3" d="M280.47,320.56l-22.6,12.93a2.44,2.44,0,0,0,0,4.23l22.6,12.93,20.47,11.74a10.28,10.28,0,0,1,5.17,8.93h0a10.29,10.29,0,0,1-15.66,8.77l-10-6.1-43-26.29a14.18,14.18,0,0,1,0-24.19l43-26.29,10-6.1a10.29,10.29,0,0,1,15.66,8.78h0a10.28,10.28,0,0,1-5.17,8.92Z" transform="translate(-230.71 -287.31)"/><path class="cls-4" d="M331.53,353.78l22.6,12.93a2.44,2.44,0,0,1,0,4.23l-22.6,12.93-20.47,11.74a10.28,10.28,0,0,0-5.17,8.93h0a10.29,10.29,0,0,0,15.66,8.78l10-6.11,43-26.29a14.17,14.17,0,0,0,0-24.18l-43-26.3-10-6.1a10.29,10.29,0,0,0-15.66,8.78h0a10.28,10.28,0,0,0,5.17,8.92Z" transform="translate(-230.71 -287.31)"/></g></svg>